<?xml version="1.0" encoding="UTF-8"?>
<svg width="700pt" height="700pt" version="1.1" viewBox="0 0 700 700" xmlns="http://www.w3.org/2000/svg" xmlns:xlink="http://www.w3.org/1999/xlink">
 <g>
  <path d="m417.34 83.23-30.043 30.043c-154.92-13.113-292.22 75.035-292.22 189.05 0 128.56 104.69 217.32 250.75 217.32 9.2344 0 16.719 7.4844 16.719 16.715s-7.4844 16.715-16.719 16.715c-163.41 0-284.18-102.39-284.18-250.75 0-143.34 172.45-247.28 355.7-219.1zm158.44 66.988c115.6 104.8 36.148 290.32-127.59 310.79-93.781 11.723-162.87-3.2969-206.13-46.559-6.5273-6.5273-6.5273-17.113 0-23.641 6.5312-6.5273 17.113-6.5273 23.641 0 34.75 34.746 93.82 47.59 178.35 37.023 137.72-17.215 202.59-169.69 108.05-253.93zm-67.688-110.46 34.867-34.867c6.5273-6.5273 17.109-6.5273 23.641 0l41.789 41.793c6.5273 6.5273 6.5273 17.113 0 23.641l-34.867 34.867zm-89.492 220.36c-4.7031 4.7031-11.082 7.3438-17.73 7.3438h-38.328c-9.2344 0-16.719-7.4844-16.719-16.715v-38.328c0-6.6523 2.6406-13.027 7.3438-17.73l131.29-131.29 65.43 65.434z"/>
 </g>
</svg>
