<?xml version="1.0" encoding="UTF-8"?>
<svg width="700pt" height="700pt" version="1.1" viewBox="0 0 700 700" xmlns="http://www.w3.org/2000/svg" xmlns:xlink="http://www.w3.org/1999/xlink">
  <path d="m565.02 168.36-133.18 133.18c-6.4648 6.4609-15.23 10.094-24.371 10.094h-44.555c-19.031 0-34.461-15.43-34.461-34.461v-44.555c0-9.1406 3.6328-17.906 10.094-24.371l100.87-100.87c-179.25-40.234-352.19 57.098-352.19 187.02 0 132.51 107.91 224 258.46 224 9.5156 0 17.23 7.7148 17.23 17.23 0 9.5156-7.7148 17.23-17.23 17.23-168.44 0-292.92-105.54-292.92-258.46 0-160.33 209.32-272.84 415.04-215.4l68.902-68.906c13.461-13.457 35.281-13.457 48.738 0l44.555 44.555c13.457 13.457 13.457 35.277 0 48.734l-40.586 40.59c109.26 109 27.309 293.3-138.2 313.99-96.668 12.082-167.88-3.3984-212.48-47.992-6.7266-6.7266-6.7266-17.637 0-24.367 6.7305-6.7305 17.641-6.7305 24.367 0 35.82 35.816 96.707 49.055 183.84 38.164 138.56-17.32 205.59-167.48 118.08-255.4zm-202.1 64.254v44.555h44.555l25.848-25.848-44.555-44.555zm242.71-153.6-44.555-44.555-147.94 147.94 44.555 44.555z"/>
</svg>
